<svg xmlns="http://www.w3.org/2000/svg" viewBox="0 0 80 80" width="80" height="80">
  <defs>
    <linearGradient id="j-blue" x1="0%" y1="0%" x2="100%" y2="100%">
      <stop offset="0%" stop-color="#00C2FF"/>
      <stop offset="100%" stop-color="#164CFF"/>
    </linearGradient>
    <linearGradient id="j-blue2" x1="0%" y1="100%" x2="100%" y2="0%">
      <stop offset="0%" stop-color="#164CFF"/>
      <stop offset="100%" stop-color="#0095FF"/>
    </linearGradient>
  </defs>
  <g transform="translate(4,6)">
    <path d="M6 4 L22 4 L22 42 L6 32 Z" fill="#8A2FF0"/>
    <path d="M28 4 L72 4 L72 34 L44 34 L44 22 L28 22 Z" fill="url(#j-blue)"/>
    <path d="M38 28 L56 28 L56 62 L47 72 L38 62 Z" fill="#8A2FF0"/>
    <path d="M6 44 L22 54 L47 72 L72 54 L72 34 L56 34 L56 54 L47 62 L22 44 Z" fill="url(#j-blue2)"/>
  </g>
</svg>
